<?xml version="1.0" encoding="iso-8859-1"?>
<!-- Generator: Adobe Illustrator 19.0.0, SVG Export Plug-In . SVG Version: 6.00 Build 0)  -->
<svg version="1.1" id="Layer_1" xmlns="http://www.w3.org/2000/svg" xmlns:xlink="http://www.w3.org/1999/xlink" x="0px" y="0px"
	 viewBox="0 0 503.943 503.943" style="enable-background:new 0 0 503.943 503.943;" xml:space="preserve">
<path style="fill:#FFD15C;" d="M417.668,328.916L30.01,502.369c-13.584,6.269-27.167-7.314-21.943-20.898l0,0l0,0l12.539-35.527
	l132.702-345.861C266.157,143.969,359.153,223.381,417.668,328.916z"/>
<path style="fill:#FF7058;" d="M483.496,298.614l-66.874,29.257c-58.514-104.49-151.51-184.947-264.359-228.833l32.392-84.637
	c4.18-11.494,17.763-17.763,30.302-12.539C333.031,54.107,433.341,146.058,494.99,268.311
	C500.215,279.805,494.99,293.389,483.496,298.614z"/>
<g>
	<path style="fill:#F8B64C;" d="M81.21,365.487c6.269,12.539,0,28.212-13.584,34.482c-9.404,4.18-20.898,2.09-28.212-4.18
		l17.763-44.931C67.627,350.858,75.986,356.083,81.21,365.487z"/>
	<path style="fill:#F8B64C;" d="M417.668,328.916l-15.673,7.314c-57.469-101.355-145.241-177.633-254.955-219.429l6.269-16.718
		C266.157,143.969,359.153,223.381,417.668,328.916z"/>
</g>
<path style="fill:#F2F2F2;" d="M258.843,259.952c7.314-13.584,1.045-30.302-12.539-36.571c-13.584-7.314-30.302-1.045-36.571,12.539
	c-2.09,5.224,2.09,10.449,9.404,16.718l-12.539,24.033l20.898,10.449l12.539-24.033
	C248.394,264.132,255.708,265.177,258.843,259.952z"/>
<g>
	<path style="fill:#FF7058;" d="M116.737,349.814c-12.539,6.269-18.808,20.898-13.584,34.482
		c6.269,12.539,20.898,18.808,34.482,13.584c13.584-6.269,18.808-20.898,13.584-34.482
		C144.949,349.814,129.276,343.544,116.737,349.814z M133.455,388.475c-8.359,3.135-17.763,0-20.898-8.359
		c-3.135-8.359,0-17.763,8.359-20.898c8.359-3.135,17.763,0,20.898,8.359C144.949,374.891,141.815,384.295,133.455,388.475z"/>
	<path style="fill:#FF7058;" d="M155.398,163.822c-12.539,6.269-18.808,20.898-13.584,34.482
		c6.269,13.584,20.898,18.808,34.482,13.584c13.584-6.269,18.808-20.898,13.584-34.482
		C183.61,163.822,168.982,157.552,155.398,163.822z M173.162,202.483c-8.359,3.135-17.763,0-20.898-8.359s0-17.763,8.359-20.898
		c8.359-3.135,17.763,0,20.898,8.359C184.655,188.899,180.476,198.303,173.162,202.483z"/>
</g>
<g>
	<ellipse style="fill:#F8B64C;" cx="269.281" cy="338.342" rx="31.346" ry="31.346"/>
	<path style="fill:#F8B64C;" d="M140.77,258.907c1.045,4.18-1.045,9.404-6.269,10.449c-4.18,1.045-9.404-1.045-10.449-6.269
		c-3.135-11.494-13.584-20.898-25.078-21.943l6.269-16.718C121.962,228.605,135.545,241.144,140.77,258.907z"/>
	<path style="fill:#F8B64C;" d="M62.402,459.528c-2.09,4.18-7.314,6.269-11.494,4.18c-15.673-7.314-33.437-1.045-40.751,13.584
		c-1.045,1.045-2.09,2.09-3.135,3.135l13.584-34.482c11.494-4.18,25.078-4.18,37.616,2.09
		C62.402,449.079,64.492,454.303,62.402,459.528z"/>
</g>
<g>
</g>
<g>
</g>
<g>
</g>
<g>
</g>
<g>
</g>
<g>
</g>
<g>
</g>
<g>
</g>
<g>
</g>
<g>
</g>
<g>
</g>
<g>
</g>
<g>
</g>
<g>
</g>
<g>
</g>
</svg>
